<mxfile host="app.diagrams.net" modified="2022-01-29T03:51:09.711Z" agent="5.0 (Macintosh; Intel Mac OS X 10_15_7) AppleWebKit/537.36 (KHTML, like Gecko) Chrome/96.0.4664.110 Safari/537.36" etag="5gb0x3KiUpTpUSq6LHxA" version="16.1.0" type="github">
  <diagram id="JU-ji0g_8GX4ljdNxPgz" name="Page-1">
    <mxGraphModel dx="764" dy="443" grid="1" gridSize="10" guides="1" tooltips="1" connect="1" arrows="1" fold="1" page="1" pageScale="1" pageWidth="827" pageHeight="1169" math="0" shadow="0">
      <root>
        <mxCell id="0" />
        <mxCell id="1" parent="0" />
        <mxCell id="Jp9CaHk3wXX98J4TBx5n-9" value="" style="rounded=1;whiteSpace=wrap;html=1;shadow=0;glass=0;labelBackgroundColor=none;sketch=0;fontFamily=Comic Sans MS;fontSize=19;fillColor=#DDFBD2;gradientColor=none;" vertex="1" parent="1">
          <mxGeometry x="160" y="25" width="310" height="310" as="geometry" />
        </mxCell>
        <mxCell id="Jp9CaHk3wXX98J4TBx5n-1" value="&lt;font face=&quot;Comic Sans MS&quot;&gt;container2&lt;br&gt;mount to: /path2&lt;/font&gt;" style="rounded=1;whiteSpace=wrap;html=1;fillColor=#E7D7C1;" vertex="1" parent="1">
          <mxGeometry x="180" y="150" width="120" height="60" as="geometry" />
        </mxCell>
        <mxCell id="Jp9CaHk3wXX98J4TBx5n-2" value="&lt;font face=&quot;Comic Sans MS&quot;&gt;container1&lt;br&gt;mount to: /path1&lt;/font&gt;" style="rounded=1;whiteSpace=wrap;html=1;labelBackgroundColor=none;fillColor=#E7D7C1;" vertex="1" parent="1">
          <mxGeometry x="180" y="50" width="120" height="60" as="geometry" />
        </mxCell>
        <mxCell id="Jp9CaHk3wXX98J4TBx5n-3" value="&lt;font face=&quot;Comic Sans MS&quot;&gt;volume&lt;br&gt;type: emptyDir&lt;/font&gt;" style="rounded=1;whiteSpace=wrap;html=1;fillColor=#BCEDF6;" vertex="1" parent="1">
          <mxGeometry x="330" y="240" width="120" height="60" as="geometry" />
        </mxCell>
        <mxCell id="Jp9CaHk3wXX98J4TBx5n-5" value="&lt;font style=&quot;font-size: 19px&quot;&gt;&lt;b&gt;pod&lt;/b&gt;&lt;/font&gt;" style="text;html=1;strokeColor=none;fillColor=none;align=center;verticalAlign=middle;whiteSpace=wrap;rounded=0;shadow=0;glass=0;labelBackgroundColor=none;fontFamily=Comic Sans MS;" vertex="1" parent="1">
          <mxGeometry x="180" y="280" width="60" height="40" as="geometry" />
        </mxCell>
        <mxCell id="Jp9CaHk3wXX98J4TBx5n-6" value="" style="endArrow=classic;html=1;rounded=0;fontFamily=Comic Sans MS;fontSize=19;dashed=1;exitX=1;exitY=0.5;exitDx=0;exitDy=0;entryX=0.5;entryY=0;entryDx=0;entryDy=0;" edge="1" parent="1" source="Jp9CaHk3wXX98J4TBx5n-2" target="Jp9CaHk3wXX98J4TBx5n-3">
          <mxGeometry width="50" height="50" relative="1" as="geometry">
            <mxPoint x="40" y="200" as="sourcePoint" />
            <mxPoint x="90" y="150" as="targetPoint" />
            <Array as="points">
              <mxPoint x="390" y="80" />
            </Array>
          </mxGeometry>
        </mxCell>
        <mxCell id="Jp9CaHk3wXX98J4TBx5n-7" value="" style="endArrow=classic;html=1;rounded=0;fontFamily=Comic Sans MS;fontSize=19;dashed=1;exitX=1;exitY=0.5;exitDx=0;exitDy=0;" edge="1" parent="1" source="Jp9CaHk3wXX98J4TBx5n-1">
          <mxGeometry width="50" height="50" relative="1" as="geometry">
            <mxPoint x="310" y="90" as="sourcePoint" />
            <mxPoint x="390" y="240" as="targetPoint" />
            <Array as="points">
              <mxPoint x="390" y="180" />
            </Array>
          </mxGeometry>
        </mxCell>
      </root>
    </mxGraphModel>
  </diagram>
</mxfile>
